<?xml version="1.0" standalone="no"?>
<!DOCTYPE svg PUBLIC "-//W3C//DTD SVG 20010904//EN"
 "http://www.w3.org/TR/2001/REC-SVG-20010904/DTD/svg10.dtd">
<svg version="1.0" xmlns="http://www.w3.org/2000/svg"
 width="628.000000pt" height="638.000000pt" viewBox="0 0 628.000000 638.000000"
 preserveAspectRatio="xMidYMid meet">

<g transform="translate(0.000000,638.000000) scale(0.100000,-0.100000)"
fill="#000000" stroke="none">
<path d="M3681 6125 c-207 -45 -389 -151 -547 -317 -88 -93 -140 -179 -299
-497 l-127 -254 -137 -156 c-433 -494 -553 -667 -1173 -1706 -165 -276 -382
-631 -432 -708 -22 -33 -18 -33 37 -6 23 12 145 59 272 105 647 232 1138 473
1512 742 308 221 474 404 594 656 63 132 88 238 96 401 5 113 3 140 -15 203
-11 39 -16 72 -12 72 17 0 90 -106 126 -184 46 -100 67 -202 59 -281 -23 -212
-121 -448 -264 -640 -191 -254 -468 -465 -906 -691 -260 -133 -504 -233 -850
-348 l-110 -36 -196 -343 c-108 -188 -273 -475 -366 -637 -203 -353 -283 -496
-283 -504 0 -13 34 -3 156 47 142 58 268 133 534 316 96 67 177 118 181 113 4
-4 13 -54 19 -112 35 -318 59 -392 207 -643 75 -127 160 -217 300 -316 184
-131 479 -205 729 -181 288 26 492 98 730 256 103 69 130 97 118 122 -20 41
-227 322 -237 322 -6 0 -74 -37 -150 -81 -343 -201 -519 -226 -766 -107 -68
32 -101 57 -171 127 -72 71 -94 101 -128 171 -22 47 -37 88 -34 91 4 4 75 21
157 39 408 87 828 211 963 286 159 88 271 190 336 307 107 191 107 341 0 563
-51 103 -118 179 -232 264 -56 41 -102 78 -102 82 0 9 33 30 233 148 395 234
589 431 765 780 93 183 126 276 148 420 24 150 15 403 -21 610 -37 211 -40
377 -7 471 30 87 75 137 176 198 152 92 353 160 673 226 72 15 137 31 145 36
10 7 9 15 -7 45 -35 65 -136 136 -283 200 -110 47 -217 73 -357 85 -169 14
-185 19 -344 104 -173 93 -233 118 -333 139 -95 20 -288 20 -377 1z m390 -365
c56 -16 77 -45 85 -120 6 -61 4 -68 -20 -97 -59 -70 -130 -61 -167 20 -35 78
-20 168 31 194 30 15 27 15 71 3z m-1177 -3489 c121 -59 195 -147 196 -231 0
-88 -104 -215 -217 -266 -167 -74 -782 -258 -801 -239 -10 10 -2 168 13 238
27 131 93 241 227 378 121 124 213 160 398 156 107 -2 120 -5 184 -36z"/>
</g>
</svg>
