<svg xmlns="http://www.w3.org/2000/svg" viewBox="0 0 32 32"><g id="health"><path d="M27.36,10.5C25.86,8.27,23.13,9,21.5,9.84c-1.63-.87-4.36-1.57-5.86.66-1,1.4-.83,3.4.34,5.6C17.23,18.46,19.7,21,21.5,21s4.27-2.54,5.52-4.9C28.19,13.9,28.31,11.9,27.36,10.5Zm-2.1,4.66C24.08,17.38,22.09,19,21.5,19s-2.58-1.62-3.76-3.84c-.37-.71-1.17-2.47-.44-3.55A1.41,1.41,0,0,1,18.55,11a5.42,5.42,0,0,1,2.4.83,1,1,0,0,0,1.1,0s2.66-1.69,3.65-.22C26.43,12.69,25.63,14.45,25.26,15.16Z"/><path d="M23,23a1,1,0,0,0-1,1v2a2,2,0,0,1-2,2H8a2,2,0,0,1-2-2V6A2,2,0,0,1,8,4H20a2,2,0,0,1,2,2,1,1,0,0,0,2,0,4,4,0,0,0-4-4H8A4,4,0,0,0,4,6V26a4,4,0,0,0,4,4H20a4,4,0,0,0,4-4V24A1,1,0,0,0,23,23Z"/><circle cx="14" cy="24" r="2"/></g></svg>