<svg xmlns="http://www.w3.org/2000/svg" viewBox="0 0 512 512"><g id="CT_Scan"><path d="M447.145,70.4185H64.855a6.5,6.5,0,0,0-6.5,6.5v358.163a6.5,6.5,0,0,0,6.5,6.5h382.29a6.5,6.5,0,0,0,6.5-6.5V76.9185A6.5,6.5,0,0,0,447.145,70.4185Zm-6.5,358.163H71.355V83.4185h369.29Z"/><path d="M109.6035,120.4487h27.3228v-13H103.1035a6.5,6.5,0,0,0-6.5,6.5v35.4571h13Z"/><rect x="96.5571" y="391.2319" width="83.0107" height="13"/><rect x="373.7852" y="131.2065" width="41.5054" height="13"/><rect x="96.5571" y="367.2183" width="57.7046" height="13"/><rect x="359.2886" y="108.2788" width="56.001" height="13"/><path d="M404.6738,390.3823H377.3511v13h33.8227a6.5,6.5,0,0,0,6.5-6.5v-35.458h-13Z"/><path d="M127.6284,265.4819A97.65,97.65,0,0,0,142.22,316.9448v1.7227h1.0856c.102.1577.2071.3132.31.47v.5657h.3728A99.048,99.048,0,0,0,168.0558,344.86a97.7353,97.7353,0,0,0,59.2132,19.903,18.5206,18.5206,0,0,0,18.5-18.5V165.7368a20.7452,20.7452,0,0,0-19.896-19.5361,98.3556,98.3556,0,0,0-98.2446,98.2441ZM231.373,164.7007v41.4756H208.5776v13h1.396v1.0361H231.373v33.75h-49.17a6.2659,6.2659,0,0,1-3.1193-.85,9.13,9.13,0,0,1-2.6883-6.6147V233.2944h-1.396v-1.0361h-13v13.2031a21.8325,21.8325,0,0,0,9.4161,18.148A19.3051,19.3051,0,0,0,183.5986,268H231.373v33.6983H208.5776v13h1.396v1.0371H231.373v29.4922a5.5059,5.5059,0,0,1-5.5,5.5,84.7679,84.7679,0,0,1-50.1569-16.3783,85.9659,85.9659,0,0,1-14.9942-14.6452h12.971c11.14,0,20.2036-9.6455,20.2036-21.501V284.9985h-1.396v-1.0361h-13v13.2041c0,4.6875-3.2315,8.501-7.2036,8.501H151.5836a84.6888,84.6888,0,0,1-9.56-39.1485V245.4819a84.7078,84.7078,0,0,1,10.0916-40.1855h21.5774a6.267,6.267,0,0,1,3.1174.849,9.1277,9.1277,0,0,1,2.69,6.6158v13.2041h1.396v1.0362h13V213.7974a21.8316,21.8316,0,0,0-9.422-18.1518,19.3045,19.3045,0,0,0-12.1776-4.3853H161.5394a85.11,85.11,0,0,1,65.73-31.0235,3.7505,3.7505,0,0,1,4.104,4.4639Z"/><path d="M286.127,365.8A98.2479,98.2479,0,0,0,368.6948,320.74h1.085v-1.7216a97.65,97.65,0,0,0,14.5918-51.4629V246.5181a98.3559,98.3559,0,0,0-98.2446-98.2452,18.5207,18.5207,0,0,0-18.5,18.5V347.3A18.5206,18.5206,0,0,0,286.127,365.8Zm0-204.5274a85.1093,85.1093,0,0,1,66.5469,32.0606H339.7031c-11.14,0-20.2036,9.6455-20.2036,21.501v13.2031h13V214.8345c0-4.6875,3.2315-8.501,7.2036-8.501h21.5775a84.71,84.71,0,0,1,10.091,40.1846v21.0371a84.71,84.71,0,0,1-10.091,40.1845H339.7031c-3.9721,0-7.2036-3.8134-7.2036-8.5009V286.0356h-13v13.2032c0,11.8554,9.0635,21.5009,20.2036,21.5009h12.9708A85.1093,85.1093,0,0,1,286.127,352.8a5.5065,5.5065,0,0,1-5.5-5.5V316.771h22.7954v-13H280.627V269.0356h49.17c11.14,0,20.2036-9.6455,20.2036-21.5009V234.3306h-13v13.2041c0,4.6875-3.2315,8.5009-7.2036,8.5009h-49.17V221.2485h22.7954v-13H280.627V166.7729A5.5065,5.5065,0,0,1,286.127,161.2729Z"/></g></svg>