<svg xmlns="http://www.w3.org/2000/svg" viewBox="0 0 512 512"><g id="Liver_Cancer_Screening"><path d="M156.6016,161.7258a99.309,99.309,0,0,0-68.0406,69.877l-1.646,6.2881,12.5767,3.2915,1.6455-6.2886A86.249,86.249,0,0,1,160.23,174.2092l6.2417-1.8139-3.6279-12.4834Z"/><path d="M465.6426,260.0974a93.561,93.561,0,0,0-47.6334-81.45l11.05-8.1016a28.6325,28.6325,0,0,0-16.93-51.7237H307.6074a54.1665,54.1665,0,0,0-54.105,54.1055v43.854a17.0687,17.0687,0,0,1-13.0332,16.5625v-85.89a28.6645,28.6645,0,0,0-28.6323-28.6323H184.1313c-75.9687,0-137.7739,61.8052-137.7739,137.7744v76.9385a59.5482,59.5482,0,0,0,94.8335,48.063L280.644,279.3572a93.4715,93.4715,0,0,0,133.1852,64.4151l28.4931,43.8017,10.8974-7.0889-28.1859-43.33A93.4648,93.4648,0,0,0,465.6426,260.0974ZM133.5044,371.1135a46.5962,46.5962,0,0,1-74.147-37.5786V256.5964A124.9155,124.9155,0,0,1,184.1313,131.822h27.7056a15.65,15.65,0,0,1,15.6323,15.6323V240.32a6.5,6.5,0,0,0,6.5,6.5h2.4947a30.0723,30.0723,0,0,0,30.0385-30.0381v-43.854a41.1518,41.1518,0,0,1,41.105-41.1055H412.13a15.6323,15.6323,0,0,1,9.2431,28.2393l-16.8206,12.3321a93.5032,93.5032,0,0,0-125.9074,87.704q0,2.2754.1112,4.5241ZM291.645,260.0974a80.4988,80.4988,0,1,1,80.499,80.499A80.59,80.59,0,0,1,291.645,260.0974Z"/><path d="M421.6636,228.7229,375.394,202.01a6.4989,6.4989,0,0,0-6.5-.0005l-46.27,26.7139a6.5,6.5,0,0,0-3.25,5.6294V287.78a6.5,6.5,0,0,0,3.25,5.6294l46.27,26.7139a6.5,6.5,0,0,0,6.5,0l46.27-26.7134a6.5,6.5,0,0,0,3.25-5.6294V234.3523A6.5,6.5,0,0,0,421.6636,228.7229Zm-9.75,55.3042-39.77,22.9614-39.77-22.9614V238.1052l39.77-22.9614,39.77,22.9614Z"/><path d="M358.3613,238.3372a22.729,22.729,0,1,0,13.7827,40.8066,22.729,22.729,0,1,0,0-36.1553A22.5728,22.5728,0,0,0,358.3613,238.3372Zm19.3052,17.6191a9.7291,9.7291,0,1,1,0,10.22,6.5009,6.5009,0,0,0-5.522-3.0713h0a6.5,6.5,0,0,0-5.5219,3.0713,9.729,9.729,0,1,1,0-10.22,6.5,6.5,0,0,0,11.0444,0Z"/></g></svg>