<svg xmlns="http://www.w3.org/2000/svg" viewBox="0 0 512 512"><g id="Colon_Rectum_Cancer_Test_" data-name="Colon&amp;Rectum_Cancer_Test"><path d="M441.91,136.9217A96.1035,96.1035,0,0,0,253.437,110.3959a6.404,6.404,0,0,1-3.0269-1.3949,27.383,27.383,0,0,0-37.5084,2.3343,6.5132,6.5132,0,0,1-9.5369,0,27.3831,27.3831,0,0,0-37.5085-2.3344,6.4343,6.4343,0,0,1-8.2292,0,27.3814,27.3814,0,0,0-38.8258,3.8511,27.3944,27.3944,0,0,0-42.6392,34.405,27.3764,27.3764,0,0,0,.264,34.7068,6.4346,6.4346,0,0,1,0,8.2292,27.3746,27.3746,0,0,0,0,35.0275,6.4343,6.4343,0,0,1,0,8.2292,27.3743,27.3743,0,0,0,0,35.0276,6.4571,6.4571,0,0,1-.0254,8.26,27.393,27.393,0,0,0,17.9533,44.7078,27.7358,27.7358,0,0,0,9.2524-.5177v4.1562a38.4456,38.4456,0,0,0,38.4023,38.4024h63.0224a26.814,26.814,0,0,0-.5138,3.5056,27.3076,27.3076,0,0,0,4.85,17.8823,27.3734,27.3734,0,0,0,1.3994,33.1942,6.4217,6.4217,0,0,1,.4829,7.532,27.3588,27.3588,0,0,0-6.69,15.6052c-.0121.1278-.019.2569-.0293.3853-.0458.6028-.0751,1.21-.0812,1.823-.0019.1335-.0177.2635-.0177.3975,0,.2358.0252.4651.0311.7.0094.3234.0226.6458.0431.9663a27.2509,27.2509,0,0,0,6.2616,15.848h.0781a27.4783,27.4783,0,1,0,41.2515-36.2854,6.4214,6.4214,0,0,1,.7964-6.9713,27.3792,27.3792,0,0,0,3.2207-30.1992,27.39,27.39,0,0,0,41.1689-1.2325,27.3958,27.3958,0,0,0,43.5286-33.2124,27.3718,27.3718,0,0,0-1.3361-33.283,6.4342,6.4342,0,0,1,0-8.2291,27.3767,27.3767,0,0,0,.0393-34.9818,6.6154,6.6154,0,0,1,0-8.4983,27.3767,27.3767,0,0,0-.0393-34.9818,6.3777,6.3777,0,0,1-.4781-.673c2.2514.1585,4.5223.2445,6.8133.2445a95.51,95.51,0,0,0,42.5383-9.945l39.1775,60.2267,10.8965-7.0888-38.8286-59.6906A96.0791,96.0791,0,0,0,441.91,136.9217ZM142.0088,350.4857a25.4313,25.4313,0,0,1-25.4023-25.4024V313.8386a27.3762,27.3762,0,0,0,1.9456-37.132,6.4346,6.4346,0,0,1,0-8.2292,27.2769,27.2769,0,0,0,5.8759-12.5186H246.9148a31.0774,31.0774,0,0,0,7.04,14.1162l4.2832,4.89,9.7783-8.566-4.2822-4.8891a18.3445,18.3445,0,0,1,0-24.1011l4.2822-4.8892-9.7783-8.5659-4.2832,4.89a31.0775,31.0775,0,0,0-7.04,14.1157H123.6739a27.3277,27.3277,0,0,0-5.1218-9.509,6.4346,6.4346,0,0,1,0-8.2292,27.3743,27.3743,0,0,0,0-35.0275,6.4346,6.4346,0,0,1,0-8.2292,27.2946,27.2946,0,0,0,4.4869-27.36q.8461-.95,1.7819-1.8142a27.3675,27.3675,0,0,0,32.8062-1.6628,6.4343,6.4343,0,0,1,8.2292,0,27.3833,27.3833,0,0,0,37.5085-2.3344,6.5131,6.5131,0,0,1,9.5369,0,27.3833,27.3833,0,0,0,37.5085,2.3344c.1025-.0855.2144-.1519.3208-.23a95.4927,95.4927,0,0,0,14.4707,38.2842H168.9529A31.1046,31.1046,0,0,0,161.72,174.095l-4.2827-4.89-9.7793,8.5654,4.2827,4.89a18.3444,18.3444,0,0,1,0,24.101l-4.2827,4.89,9.7793,8.5654,4.2827-4.89a31.0613,31.0613,0,0,0,6.8176-13.1455h106.8a96.8494,96.8494,0,0,0,17.2792,14.7338,27.3242,27.3242,0,0,0,4.7321,8.3053,6.4346,6.4346,0,0,1,0,8.2292,27.3765,27.3765,0,0,0-.0393,34.9817,6.6158,6.6158,0,0,1,0,8.4984,27.2691,27.2691,0,0,0-6.2964,17.468c0,.7786.0392,1.5478.1029,2.31H168.9528a31.1043,31.1043,0,0,0-7.2331-15.0859l-4.2827-4.89-9.7793,8.5655,4.2827,4.89a18.3445,18.3445,0,0,1,0,24.1011l-4.2827,4.89,9.7793,8.5655,4.2827-4.89a31.0593,31.0593,0,0,0,6.8177-13.146H295.71c.5139.76,1.0529,1.5009,1.6384,2.2038a6.4345,6.4345,0,0,1,0,8.2293,27.33,27.33,0,0,0-5.7864,22.95,25.62,25.62,0,0,1-2.32,2.0365,27.3647,27.3647,0,0,0-33.0919,5.3583h-4.3133a27.316,27.316,0,0,0-39.9673,0Zm120.7026-213.564a83.0992,83.0992,0,1,1,83.0987,83.1A83.1936,83.1936,0,0,1,262.7114,136.9217Z"/><path d="M395.3306,104.5784l-46.27-26.7133a6.5,6.5,0,0,0-6.5-.0005l-46.27,26.7138a6.5014,6.5014,0,0,0-3.25,5.6294v53.4278a6.5014,6.5014,0,0,0,3.25,5.6294l46.27,26.7138a6.5,6.5,0,0,0,6.5-.0005l46.27-26.7133a6.5014,6.5014,0,0,0,3.25-5.6294V110.2078A6.5014,6.5014,0,0,0,395.3306,104.5784Zm-9.75,55.3042-39.77,22.9615-39.77-22.9615V113.9608l39.77-22.9615,39.77,22.9615Z"/><path d="M332.0281,120.6928A16.229,16.229,0,1,0,345.8106,145.46a16.229,16.229,0,1,0,0-17.0772A16.2022,16.2022,0,0,0,332.0281,120.6928Z"/></g></svg>