<svg xmlns="http://www.w3.org/2000/svg" viewBox="0 0 512 512"><g id="Nose_Swab"><path d="M350.9124,61.398a134.7869,134.7869,0,0,0-164.7617,84.5879,6.5388,6.5388,0,0,0-.7265,1.6435,25.6193,25.6193,0,0,1-8.0811,12.5333l-48.8,41.4125a19.8143,19.8143,0,0,0,7.377,34.1592l6.2327,1.781L63.9535,252.42l2.4336,12.77,90.3667-17.2236L142.7894,296.836A31.7816,31.7816,0,0,0,164.59,336.0806l39.6953,11.3428a36.9681,36.9681,0,0,1,26.6992,35.396v73.19h13v-73.19a50.025,50.025,0,0,0-36.1269-47.896l-39.6954-11.3428a18.7656,18.7656,0,0,1-12.873-23.1728l7.7874-27.253h65.5837a38.3621,38.3621,0,0,1,38.3184,38.3189V456.01h13V311.4737a51.3768,51.3768,0,0,0-51.3184-51.3189H166.7916l3.0935-10.8261a16.6549,16.6549,0,0,0,.6151-3.9818l28.6873-5.4678a19.2492,19.2492,0,0,0,17.5843,11.514,19.4969,19.4969,0,0,0,3.6475-.3462l36.542-6.9648a19.2706,19.2706,0,0,0,15.3213-22.5371l-.8145-4.274a19.269,19.269,0,0,0-22.5371-15.3217l-36.541,6.9643a19.2369,19.2369,0,0,0-15.6365,18.195l-31.0222,5.9128a16.6191,16.6191,0,0,0-7.3423-4.3876l-18.8965-5.3994a6.8135,6.8135,0,0,1-2.5371-11.747l22.4839-19.0806h73.4868a91.641,91.641,0,0,1,91.5371,91.5376V456.01h13V283.9444A104.6561,104.6561,0,0,0,232.9261,179.4068H174.7582l10.997-9.3325A38.5741,38.5741,0,0,0,197.4632,152.7a6.504,6.504,0,0,0,.5186-1.15,121.7861,121.7861,0,0,1,149.3-77.669c64.3076,18.7027,101.541,86.2827,83.001,150.647a121.646,121.646,0,0,1-33,54.4639c-23.4024,22.2524-36.8243,53.9345-36.8243,86.9223V456.01h13V365.9136c0-29.4433,11.9493-57.6914,32.7823-77.5014a134.6672,134.6672,0,0,0,36.5342-60.2862C463.2943,156.8907,422.0843,82.0967,350.9124,61.398Zm-140.1,162.92a6.2279,6.2279,0,0,1,4.0117-2.6343l36.541-6.9643a6.27,6.27,0,0,1,7.334,4.9848l.8144,4.274a6.2711,6.2711,0,0,1-4.9853,7.333l-36.542,6.9648a6.2692,6.2692,0,0,1-7.333-4.9848l-.8145-4.2749A6.2285,6.2285,0,0,1,210.8119,224.3184Z"/></g></svg>