<svg xmlns="http://www.w3.org/2000/svg" viewBox="0 0 512 512"><g id="Pap_Smear"><path d="M257.688,309.4641h-3.9487a23.2747,23.2747,0,0,0-23.2481,23.2485v63.272A23.2822,23.2822,0,0,0,249.5,418.8383v36.85h13v-36.96a23.2863,23.2863,0,0,0,18.436-22.7442v-63.272A23.2747,23.2747,0,0,0,257.688,309.4641Z"/><path d="M454.7549,133.1824a33.1072,33.1072,0,0,0-33.07-33.07H364.3645c-.0657-.264-.1215-.5291-.1936-.7924a33.7246,33.7246,0,0,0-19.0977-22.0845l-10.3125-4.5093a197.159,197.159,0,0,0-157.5219,0l-10.3116,4.5093A33.7274,33.7274,0,0,0,147.8291,99.32c-.0722.2635-.128.5287-.1937.7929H90.3149A33.0457,33.0457,0,0,0,72.59,161.0636a28.878,28.878,0,0,0,28.64,25.4889h19.9184a28.8409,28.8409,0,1,0,0-57.6817H101.23a28.8758,28.8758,0,0,0-26.335,17.1046,20.0308,20.0308,0,0,1,15.42-32.8629H146.969a33.7919,33.7919,0,0,0,6.033,14.941l2.1723,3.0195c22.5259,31.3091,38.0928,73.2978,42.7085,115.2l1.3579,12.3262a33.7435,33.7435,0,0,0,33.5816,30.0844h46.3554a33.7435,33.7435,0,0,0,33.5816-30.0849l1.3579-12.3281c4.6167-41.9024,20.1831-83.89,42.709-115.1978l2.1718-3.0185a33.7921,33.7921,0,0,0,6.0331-14.9415h56.654a20.0308,20.0308,0,0,1,15.42,32.8629,28.8758,28.8758,0,0,0-26.335-17.1046H390.8516a28.8409,28.8409,0,1,0,0,57.6817H410.77a28.878,28.878,0,0,0,28.64-25.4889A33.0466,33.0466,0,0,0,454.7549,133.1824ZM101.23,141.8708h19.9184a15.8409,15.8409,0,1,1,0,31.6817H101.23a15.8409,15.8409,0,0,1,0-31.6817Zm247.2153-21.41-2.1719,3.0185C322.48,156.55,306.05,200.7864,301.1953,244.8469l-1.3579,12.3281a20.759,20.759,0,0,1-20.66,18.5083H232.8223a20.759,20.759,0,0,1-20.66-18.5083l-1.3579-12.3261c-4.8535-44.06-21.2837-88.2964-45.0776-121.3677l-2.1724-3.02a20.8726,20.8726,0,0,1,8.581-31.3145l10.3116-4.5092a184.1153,184.1153,0,0,1,147.1054,0l10.312,4.5092a20.8723,20.8723,0,0,1,8.5806,31.3145ZM410.77,173.5525H390.8516a15.8409,15.8409,0,1,1,0-31.6817H410.77a15.8409,15.8409,0,0,1,0,31.6817Z"/><path d="M311.7153,108.6458a154.6232,154.6232,0,0,0-111.4306,0,6.5,6.5,0,0,0-3.1392,9.5478c22.3916,35.2368,37.4492,78.8193,42.4,122.7183a6.5,6.5,0,0,0,6.459,5.7714h19.9907a6.5,6.5,0,0,0,6.459-5.7714c4.9517-43.9019,20.01-87.4839,42.4-122.7183a6.5,6.5,0,0,0-3.1392-9.5478Z"/></g></svg>