<?xml version="1.0" encoding="utf-8"?>
<!-- Generator: Adobe Illustrator 16.0.0, SVG Export Plug-In . SVG Version: 6.00 Build 0)  -->
<!DOCTYPE svg PUBLIC "-//W3C//DTD SVG 1.1//EN" "http://www.w3.org/Graphics/SVG/1.1/DTD/svg11.dtd">
<svg version="1.1" id="Layer_1" xmlns="http://www.w3.org/2000/svg" xmlns:xlink="http://www.w3.org/1999/xlink" x="0px" y="0px"
	 width="128px" height="128px" viewBox="0 0 128 128" enable-background="new 0 0 128 128" xml:space="preserve">
<g>
	<g>
		<path fill="#282D33" d="M63.999,108.678c-24.329,0-44.121-20.043-44.121-44.678c0-24.635,19.792-44.678,44.121-44.678
			c24.328,0,44.121,20.042,44.121,44.678C108.12,88.635,88.327,108.678,63.999,108.678z M63.999,23.321
			C41.875,23.321,23.877,41.57,23.877,64c0,22.431,17.998,40.678,40.122,40.678c22.123,0,40.122-18.247,40.122-40.678
			C104.121,41.57,86.122,23.321,63.999,23.321z"/>
	</g>
	<g>
		<path fill="#282D33" d="M63.973,92.874C63.972,92.874,63.972,92.874,63.973,92.874c-14.606,0-26.788-11.101-28.335-25.822
			c-0.391-3.737-0.064-7.465,0.974-11.082l1.002-3.496l2.415,2.719c1.799,2.025,4.421,3.076,7.121,2.782
			c4.611-0.497,7.96-4.71,7.467-9.394c-0.285-2.713-1.854-5.145-4.196-6.503l-3.071-1.782l3.116-1.703
			c3.286-1.794,6.823-2.907,10.513-3.304c1.013-0.109,2.039-0.164,3.051-0.164c14.605,0,26.784,11.101,28.329,25.821
			c1.661,15.826-9.705,30.075-25.337,31.764C66.009,92.819,64.983,92.874,63.973,92.874z M39.774,60.159
			c-0.333,2.138-0.386,4.305-0.159,6.476c1.333,12.679,11.804,22.24,24.357,22.24h0c0.869,0,1.75-0.047,2.619-0.141
			c13.445-1.452,23.22-13.731,21.788-27.371c-1.33-12.679-11.8-22.24-24.352-22.24c-0.87,0-1.752,0.047-2.623,0.141
			c-2.143,0.23-4.226,0.743-6.224,1.528c1.894,1.987,3.117,4.577,3.411,7.369c0.723,6.872-4.218,13.057-11.016,13.789
			C44.847,62.249,42.079,61.595,39.774,60.159z"/>
	</g>
	<g>
		<path fill="#282D33" d="M64,94.071c-25.72,0-49.3-10.789-63.076-28.858L0,64l0.924-1.212C14.7,44.716,38.279,33.927,64,33.927
			c25.719,0,49.299,10.789,63.076,28.861L128,64l-0.924,1.213C113.298,83.282,89.719,94.071,64,94.071z M5.054,64
			C18.199,80.354,40.104,90.072,64,90.072c23.895,0,45.799-9.718,58.946-26.072C109.799,47.645,87.895,37.926,64,37.926
			C40.104,37.926,18.199,47.645,5.054,64z"/>
	</g>
</g>
</svg>
