<svg xmlns="http://www.w3.org/2000/svg" viewBox="0 0 512 512"><g id="Height"><path d="M252.9346,161.6494c-28.5508-12.8159-75.0117-12.8164-103.5684,0-18.6474,8.3706-29.6211,29.5474-26.6943,51.4419l32.2305,257.9878h39.3164V344.99a6.9554,6.9554,0,0,1,6.8574-6.9321l.0771,0a6.9323,6.9323,0,0,1,6.93,6.9326V471.0791h39.3154L279.6211,213.147C282.5557,191.1968,271.582,170.02,252.9346,161.6494ZM266.7285,211.48,235.9219,458.0791H221.083V344.99a19.9321,19.9321,0,0,0-20.1474-19.9311A19.9987,19.9987,0,0,0,181.2188,344.99V458.0791h-14.84L135.5645,211.4243c-2.1778-16.291,5.6875-31.8823,19.1259-37.9145,25.1866-11.3052,67.7393-11.3042,92.92,0C261.0488,179.542,268.9141,195.1333,266.7285,211.48Z"/><path d="M201.15,139.1138A39.4491,39.4491,0,0,0,240.5547,99.71V80.3252a39.4043,39.4043,0,0,0-78.8086,0V99.71A39.4491,39.4491,0,0,0,201.15,139.1138ZM174.7461,80.3252a26.4043,26.4043,0,0,1,52.8086,0V99.71a26.4043,26.4043,0,0,1-52.8086,0Z"/><polygon points="389.798 59.85 389.798 72.85 345.559 72.85 345.559 110.667 373.798 110.667 373.798 123.667 345.559 123.667 345.559 160.445 389.798 160.445 389.798 173.445 345.559 173.445 345.559 209.096 373.798 209.096 373.798 222.096 345.559 222.096 345.559 258.964 389.798 258.964 389.798 271.964 345.559 271.964 345.559 309.262 373.798 309.262 373.798 322.262 345.559 322.262 345.559 358.522 389.798 358.522 389.798 371.522 345.559 371.522 345.559 409.701 373.798 409.701 373.798 422.701 345.559 422.701 345.559 458.079 389.798 458.079 389.798 471.079 332.559 471.079 332.559 59.85 389.798 59.85"/></g></svg>