<svg xmlns="http://www.w3.org/2000/svg" viewBox="0 0 512 512"><g id="Kidney"><path d="M336.6279,177.1846l-3.6552-5.375-10.75,7.3105,3.6552,5.375a93.5608,93.5608,0,0,1,14.96,37.1021l1.0957,6.4072,12.8135-2.19-1.0948-6.4073A106.484,106.484,0,0,0,336.6279,177.1846Z"/><path d="M175.3721,177.1846a106.484,106.484,0,0,0-17.0244,42.2221l-1.0948,6.4073,12.8135,2.19,1.0957-6.4072a93.5608,93.5608,0,0,1,14.96-37.1021l3.6552-5.375-10.75-7.3105Z"/><path d="M436.1646,227.0654a241.5386,241.5386,0,0,0-43.1592-107.0415A59.0628,59.0628,0,0,0,303.7417,112.3l-.7363.7222a59.0444,59.0444,0,0,0-7.3965,75.4311,144.5847,144.5847,0,0,1,12.85,23.1964,76.5007,76.5007,0,0,0-39.2541,66.4867V416.56h13V278.1367a63.4258,63.4258,0,0,1,30.9731-54.2214,145.058,145.058,0,0,1,5.3648,21.4172v0a59.0425,59.0425,0,0,0,57.6455,49.2031l1.0488.0093c.1778.002.3535.0024.5313.0024a59.0622,59.0622,0,0,0,58.3965-67.4824ZM412.314,265.8828a45.89,45.89,0,0,1-34.5664,15.665c-.1368,0-.2764,0-.4141-.0019l-1.0244-.0088a46.0532,46.0532,0,0,1-44.9522-38.395,156.3827,156.3827,0,0,0-24.998-61.999,46.0553,46.0553,0,0,1,5.7519-58.8418l.7413-.7271a46.0622,46.0622,0,0,1,69.6142,6.0611,225.3645,225.3645,0,0,1,40.8272,101.2583A46.2126,46.2126,0,0,1,412.314,265.8828Z"/><path d="M203.5422,211.65a144.5983,144.5983,0,0,1,12.85-23.1964,59.0457,59.0457,0,0,0-7.4014-75.4355l-.7412-.7271a59.0625,59.0625,0,0,0-89.2539,7.7329,241.5576,241.5576,0,0,0-43.16,107.0415,59.0622,59.0622,0,0,0,58.3936,67.4824c.1758,0,.3545,0,.53-.0019l1.0478-.01a59.0429,59.0429,0,0,0,57.65-49.2031,145.0717,145.0717,0,0,1,5.3657-21.4176,63.4258,63.4258,0,0,1,30.9732,54.2213V416.56h13V278.1367A76.5012,76.5012,0,0,0,203.5422,211.65Zm-22.8991,31.4916v0a46.0544,46.0544,0,0,1-44.9571,38.395l-1.04.0093q-.2065.0015-.4131.0014a46.0619,46.0619,0,0,1-45.5264-52.6542,225.3716,225.3716,0,0,1,40.8282-101.2583,46.2164,46.2164,0,0,1,33.5664-19.0284q1.96-.1669,3.9092-.166a45.8786,45.8786,0,0,1,32.1376,13.1333l.7461.7315a46.0529,46.0529,0,0,1,5.7481,58.8374A156.4043,156.4043,0,0,0,180.6431,243.1416Z"/></g></svg>