<svg xmlns="http://www.w3.org/2000/svg" viewBox="0 0 512 512"><g id="Thyroid"><path d="M354.7407,228.2134a31.4647,31.4647,0,0,0-39.3515,20.6587l-4.3653,14.0151-4.3652-14.0151a31.4268,31.4268,0,0,0-60.01,18.6919l8.9444,28.7138a31.7627,31.7627,0,0,0,39.7734,20.88l10.2168-3.1821a18.2133,18.2133,0,0,1,10.8818,0l10.2168,3.1826a31.7639,31.7639,0,0,0,39.7735-20.88L375.4,267.564a31.4268,31.4268,0,0,0-20.6592-39.3506ZM271.917,284.8071a5.8009,5.8009,0,1,1,5.9722-5.6242A5.8007,5.8007,0,0,1,271.917,284.8071Zm.6528-21.77a5.801,5.801,0,1,1,5.9722-5.6246A5.8011,5.8011,0,0,1,272.57,263.0374Zm17.1438,33.1983a5.8009,5.8009,0,1,1,5.9722-5.6244A5.8011,5.8011,0,0,1,289.7136,296.2357Zm.6529-21.77a5.801,5.801,0,1,1,5.9721-5.6245A5.8006,5.8006,0,0,1,290.3665,274.4658Zm41.46,21.5081a5.8009,5.8009,0,1,1,5.8007-5.8009A5.801,5.801,0,0,1,331.8267,295.9739Zm0-21.78a5.801,5.801,0,1,1,5.8007-5.8009A5.801,5.801,0,0,1,331.8267,274.1942Zm18.1313,10.89a5.8009,5.8009,0,1,1,5.8008-5.8008A5.801,5.801,0,0,1,349.958,285.084Zm0-21.78a5.8009,5.8009,0,1,1,5.8008-5.8009A5.8009,5.8009,0,0,1,349.958,263.3043Z"/><path d="M441.1968,375.4683l-52.1856-44.8545a98.8933,98.8933,0,0,0,7.208-11.2456,97.1842,97.1842,0,0,0-108.3-141.0694V165.54a71.3086,71.3086,0,1,0-142.6171,0v38.18a71.0479,71.0479,0,0,0,35.6347,61.669v5.1167c0,11.1645-7.4892,21.2358-19.5469,26.2837-.16.0674-.3183.1411-.4726.2207l-34.84,18c-42.0127,17.7163-63.914,58.9482-52.0859,98.1372a6.5,6.5,0,0,0,6.2227,4.622H359.1372a6.5,6.5,0,0,0,6.2227-4.622,74.5818,74.5818,0,0,0-5.5039-56.4047,95.912,95.912,0,0,0,20.7421-16.2172l52.1241,44.8016ZM354.1177,404.769H85.2339a62.2277,62.2277,0,0,1,6.2109-43.0131c8.1289-15.1089,22.2989-27.4888,39.8985-34.858.16-.0673.3183-.1411.4726-.2207l34.8447-18.0024c16.5782-7.0454,27.2764-22.001,27.2764-38.17v-8.98a6.499,6.499,0,0,0-3.5537-5.794,58.1743,58.1743,0,0,1-32.081-52.0122V165.54a58.3086,58.3086,0,1,1,116.6171,0v16.926A97.1786,97.1786,0,0,0,338.2739,365.98a98.4758,98.4758,0,0,0,9.9883-3.528A62.1709,62.1709,0,0,1,354.1177,404.769Zm-19.4883-51.2675a84.2863,84.2863,0,1,1,50.1885-40.3794A83.621,83.621,0,0,1,334.6294,353.5015Z"/></g></svg>