<svg xmlns="http://www.w3.org/2000/svg" viewBox="0 0 512 512"><g id="Ultrasound"><path d="M45.0049,95.7554V416.2446h421.99V95.7554Zm408.99,307.4892H58.0049V108.7554h395.99Z"/><rect x="358.5469" y="140.4404" width="63.7075" height="13"/><rect x="89.6289" y="359.0562" width="77.1904" height="13"/><rect x="89.6289" y="334.5479" width="77.1904" height="13"/><path d="M300.9038,174.4087l-9.335-9.0469a49.5308,49.5308,0,0,1-71.1376,0l-9.335,9.0469a62.5293,62.5293,0,0,0,89.8076,0Z"/><path d="M110.8994,275.7407a203.7822,203.7822,0,0,0,290.2017,0,8.2063,8.2063,0,0,0-.112-11.6271c-.0091-.0089-.0166-.0188-.0257-.0277l-.0011-.0009,0,0h0l-82.1743-79.6323a8.2579,8.2579,0,0,0-11.4941.0752,73.15,73.15,0,0,1-102.5855.0014,8.2575,8.2575,0,0,0-11.4966-.0762L111.0381,264.084h0l0,0-.0011.0009c-.0091.0089-.0166.0188-.0257.0277a8.2063,8.2063,0,0,0-.1115,11.6276Zm281.0186-2.3178-.0006-.0007.0007.0005ZM198.9766,196.9683a86.2527,86.2527,0,0,0,114.0468,0l44.5289,43.152c-26.82,22.8533-57.8325,36.242-90.09,38.82l1.0352,12.9589c35.3943-2.8287,69.3-17.5656,98.4251-42.698l21.4815,20.8174a190.7922,190.7922,0,0,1-264.8087,0l36.05-34.9349c16.5158,15.3185,36.1461,24.7287,62.7451,30.164l2.6026-12.7363c-24.1743-4.94-41.3053-12.9991-56.0016-26.4847Zm-78.8931,76.4526.001-.001-.0025.003,0,0Z"/></g></svg>